<svg width="760" height="220" viewBox="0 0 760 220" fill="none" xmlns="http://www.w3.org/2000/svg">
  <title>Appaloft horizontal logo</title>
  <desc>Appaloft mark with wordmark</desc>
  <g transform="translate(10 0) scale(0.86)">
    <path d="M76 166 C58 166 48 153 48 139 C48 124 58 112 74 109 C77 91 92 79 111 79 C127 79 141 87 149 100" stroke="#4E84FF" stroke-width="18" stroke-linecap="round" stroke-linejoin="round"/>
    <path d="M96 166 C137 166 160 154 173 130 C185 108 186 89 177 77" stroke="#4E84FF" stroke-width="18" stroke-linecap="round" stroke-linejoin="round"/>
    <path d="M183 114 C203 120 216 135 216 153 C216 171 202 185 184 185 L149 185" stroke="#4E84FF" stroke-width="18" stroke-linecap="round" stroke-linejoin="round"/>
    <path d="M176 54 L208 89 L162 89 Z" fill="#4E84FF"/>
  </g>
  <text x="245" y="136" font-family="Inter, ui-sans-serif, system-ui, -apple-system, BlinkMacSystemFont, 'Segoe UI', sans-serif" font-size="78" font-weight="700" letter-spacing="-2" fill="#14213D">Appaloft</text>
</svg>